<!--?xml version="1.0" standalone="no"?-->
              <svg id="sw-js-blob-svg" viewBox="0 0 100 100" xmlns="http://www.w3.org/2000/svg" version="1.1">
                    <defs> 
                        <linearGradient id="sw-gradient" x1="0" x2="1" y1="1" y2="0">
                            <stop id="stop1" stop-color="rgba(116.66, 82.749, 183.068, 1)" offset="0%"></stop>
                            <stop id="stop2" stop-color="rgba(194.208, 120.372, 215.227, 1)" offset="100%"></stop>
                        </linearGradient>
                    </defs>
                <path fill="url(#sw-gradient)" d="M17.4,-30.4C22.5,-27.2,26.6,-22.5,30.9,-17.1C35.2,-11.8,39.8,-5.9,40.4,0.4C41.1,6.6,37.8,13.3,34.4,20.2C31,27.1,27.4,34.3,21.7,37.3C15.9,40.3,8,39.3,1.1,37.3C-5.7,35.3,-11.4,32.5,-18.5,30.2C-25.6,28,-34.1,26.3,-37.1,21.3C-40.1,16.4,-37.6,8.2,-36.1,0.9C-34.6,-6.4,-34.1,-12.9,-30.9,-17.7C-27.8,-22.4,-22.2,-25.5,-16.6,-28.4C-11,-31.3,-5.5,-34.1,0.3,-34.7C6.2,-35.3,12.3,-33.6,17.4,-30.4Z" width="100%" height="100%" transform="translate(50 50)" stroke-width="0" style="transition: all 0.3s ease 0s;" stroke="url(#sw-gradient)"></path>
              </svg>