<?xml version="1.0" encoding="UTF-8" standalone="no" ?>
<!DOCTYPE svg PUBLIC "-//W3C//DTD SVG 1.1//EN" "http://www.w3.org/Graphics/SVG/1.1/DTD/svg11.dtd">
<svg xmlns="http://www.w3.org/2000/svg" xmlns:xlink="http://www.w3.org/1999/xlink" version="1.1" width="1080" height="1080" viewBox="0 0 1080 1080" xml:space="preserve">
<desc>Created with Fabric.js 5.2.4</desc>
<defs>
</defs>
<g transform="matrix(1 0 0 1 540 540)" id="67e3cd07-5134-4095-9e67-f43ead57e714"  >
<rect style="stroke: none; stroke-width: 1; stroke-dasharray: none; stroke-linecap: butt; stroke-dashoffset: 0; stroke-linejoin: miter; stroke-miterlimit: 4; fill: rgb(255,255,255); fill-rule: nonzero; opacity: 1; visibility: hidden;" vector-effect="non-scaling-stroke"  x="-540" y="-540" rx="0" ry="0" width="1080" height="1080" />
</g>
<g transform="matrix(1 0 0 1 540 540)" id="193af779-1a3d-4d0e-83ff-8081806b6031"  >
</g>
<g transform="matrix(1 0 0 1 540 540)"  >
<g style="" vector-effect="non-scaling-stroke"   >
		<g transform="matrix(1.59 0 0 1.59 -277.6 0.02)"  >
<path style="stroke: none; stroke-width: 1; stroke-dasharray: none; stroke-linecap: butt; stroke-dashoffset: 0; stroke-linejoin: miter; stroke-miterlimit: 4; fill: rgb(1,0,2); fill-rule: nonzero; opacity: 1;" vector-effect="non-scaling-stroke"  transform=" translate(-76.91, -251.34)" d="M 153.821 358.226 L 0 274.337 L 0 227.874 L 153.821 144.45999999999998 L 153.821 199.034 L 46.636 250.523 L 153.821 303.954 C 153.821 303.954 153.821 358.226 153.821 358.226 z" stroke-linecap="round" />
</g>
		<g transform="matrix(1.59 0 0 1.59 -6.56 0)"  >
<path style="stroke: none; stroke-width: 1; stroke-dasharray: none; stroke-linecap: butt; stroke-dashoffset: 0; stroke-linejoin: miter; stroke-miterlimit: 4; fill: rgb(1,0,2); fill-rule: nonzero; opacity: 1;" vector-effect="non-scaling-stroke"  transform=" translate(-247.21, -251.33)" d="M 180.094 387.584 L 282.103 115.08 L 314.33 115.08 L 212.084 387.584 L 180.094 387.584 z" stroke-linecap="round" />
</g>
		<g transform="matrix(1.59 0 0 1.59 277.6 0)"  >
<path style="stroke: none; stroke-width: 1; stroke-dasharray: none; stroke-linecap: butt; stroke-dashoffset: 0; stroke-linejoin: miter; stroke-miterlimit: 4; fill: rgb(1,0,2); fill-rule: nonzero; opacity: 1;" vector-effect="non-scaling-stroke"  transform=" translate(-425.75, -251.33)" d="M 348.843 358.226 L 348.843 303.954 L 456.007 250.955 L 348.843 198.365 L 348.843 144.43800000000002 L 502.664 227.96000000000004 L 502.664 274.14300000000003 L 348.843 358.226 z" stroke-linecap="round" />
</g>
</g>
</g>
<g transform="matrix(1 0 0 1 437.85 540)" style="" id="7d82d68c-b514-41e0-b7ef-68754023eeaf"  >
		<text xml:space="preserve" font-family="Alegreya" font-size="199" font-style="normal" font-weight="600" style="stroke: none; stroke-width: 1; stroke-dasharray: none; stroke-linecap: butt; stroke-dashoffset: 0; stroke-linejoin: miter; stroke-miterlimit: 4; fill: rgb(50,5,63); fill-rule: nonzero; opacity: 1; white-space: pre;" ><tspan x="-33.03" y="62.51" >J</tspan></text>
</g>
<g transform="matrix(NaN NaN NaN NaN 0 0)"  >
<g style=""   >
</g>
</g>
<g transform="matrix(NaN NaN NaN NaN 0 0)"  >
<g style=""   >
</g>
</g>
<g transform="matrix(1 0 0 1 646.09 540)" style=""  >
		<text xml:space="preserve" font-family="Alegreya" font-size="199" font-style="normal" font-weight="600" style="stroke: none; stroke-width: 1; stroke-dasharray: none; stroke-linecap: butt; stroke-dashoffset: 0; stroke-linejoin: miter; stroke-miterlimit: 4; fill: rgb(50,5,63); fill-rule: nonzero; opacity: 1; white-space: pre;" ><tspan x="-65.37" y="62.51" >K</tspan></text>
</g>
<g transform="matrix(NaN NaN NaN NaN 0 0)"  >
<g style=""   >
</g>
</g>
<g transform="matrix(NaN NaN NaN NaN 0 0)"  >
<g style=""   >
</g>
</g>
<g transform="matrix(NaN NaN NaN NaN 0 0)"  >
<g style=""   >
</g>
</g>
</svg>