<svg id="visual" viewBox="0 0 900 600" width="900" height="600" xmlns="http://www.w3.org/2000/svg" xmlns:xlink="http://www.w3.org/1999/xlink" version="1.1"><path d="M0 396L25 404.3C50 412.7 100 429.3 150 431C200 432.7 250 419.3 300 417.8C350 416.3 400 426.7 450 442.5C500 458.3 550 479.7 600 490.2C650 500.7 700 500.3 750 488.8C800 477.3 850 454.7 875 443.3L900 432L900 601L875 601C850 601 800 601 750 601C700 601 650 601 600 601C550 601 500 601 450 601C400 601 350 601 300 601C250 601 200 601 150 601C100 601 50 601 25 601L0 601Z" fill="#0066FF" stroke-linecap="round" stroke-linejoin="miter"></path></svg>